# xmcd
#
# Track frame offsets: 
#        150
#        18381
#        28450
#        39402
#        55680
#        69419
#        82176
#        93808
#        107879
#        117647
#
# Disc length: 1819 seconds
#
# Revision: 1
# Processed by: cddbd v1.5.2PL0 Copyright (c) Steve Scherf et al.
# Submitted via: ExactAudioCopyFreeDBPlugin 1.0
#
DISCID=8407190a
DTITLE=The Jim Jones Revue - The Jim Jones Revue
DYEAR=2008
DGENRE=Punk Rock
TTITLE0=Princess and the Frog
TTITLE1=Hey Hey Hey Hey
TTITLE2=Rock n Roll Psychosis
TTITLE3=Fish 2 Fry
TTITLE4=512
TTITLE5=Another Daze
TTITLE6=The Meat Man
TTITLE7=Make it Hot
TTITLE8=Who's got mine?
TTITLE9=Cement Mixer
EXTD=
EXTT0=
EXTT1=
EXTT2=
EXTT3=
EXTT4=
EXTT5=
EXTT6=
EXTT7=
EXTT8=
EXTT9=
PLAYORDER=
